<svg xmlns="http://www.w3.org/2000/svg" viewBox="0 0 560 560"><symbol id="back" viewBox="0 0 560 560"><path stroke="#000" d="M208 333.04L259 382l12 11.04 32 30.95c9.98 9.74 18.66 14.16 17.96 30.01-.46 10.54-7.03 16.07-13.96 23-10.79 10.79-21.63 25.78-39 21.07-8.64-2.34-13.91-8.98-20-15.07l-30-30-117-117-29-29c-9.22-9.22-16-13.07-16-27 0-13.57 5.95-16.95 15-26l26-26 124-124 28-28c8.16-8.16 14.31-15.69 27-14.91 11.6.72 17.38 8.29 25 15.91 6.85 6.85 16.51 14.52 19.07 24 4.39 16.21-4.76 23.18-15.07 33.04l-34 32.92L259 178l-51 48.96L194 240h287c15.32.19 22.98 10.44 23 25v21c0 13.65.97 27.34-15 32.89-3.53 1.23-6.36 1.1-10 1.11H194l14 13.04z"/></symbol><symbol id="finish" viewBox="0 0 560 560"><path stroke="#000" d="M167 104.63c11.43 3.4 21.65 16.02 30 24.37l57 57 17 17c1.69 1.68 5.86 6.24 8 6.8 3.41.9 7.8-4.61 10-6.8l26-26 52-52c10.66-10.66 17.71-20.93 34-21 20.07-.09 25.67 9.67 39 23 11.82 11.82 16.2 15.83 16 33-.19 15.35-12.02 24.02-22 34l-61 61-16 16c-1.68 1.69-6.24 5.86-6.8 8-.9 3.41 4.61 7.8 6.8 10l26 26 52 52c10.66 10.66 20.93 17.71 21 34 .09 20.07-9.67 25.67-23 39-11.82 11.82-15.83 16.2-33 16-15.35-.19-24.02-12.02-34-22l-61-61-16-16c-1.69-1.68-5.86-6.24-8-6.8-3.26-.86-6.93 3.74-9 5.8l-23 23-54 54c-13.38 13.38-18.82 23.23-39 23-14.72-.18-21.26-8.26-31-18-12.84-12.84-21.08-17.73-21-37 .07-16.29 10.34-23.34 21-34l54-54 22-22c1.94-1.94 8.19-7.69 8.8-10 .9-3.41-4.61-7.8-6.8-10l-25-25-54-54c-9.71-9.71-19.82-17.12-20-32-.24-20.15 7.5-24.5 21-38 8.23-8.23 13.2-14.73 25-17.37 4.46-.79 12.72-1.06 17 0z"/></symbol><symbol id="move-down" viewBox="0 0 560 560"><path stroke="#000" d="M240 129V70c.06-11.36 4.24-13.98 15-14h52c10.84.15 12.98 5.23 13 15v298h32c6.59 0 15.73-.26 22 1.63 10.04 3.02 15.74 12.34 16.48 22.37 1.02 13.7-10.81 22.33-19.48 31l-59 59c-9.94 9.94-16.83 21-32 21-11.41 0-14.19-3.2-22-11l-11-11-65-65c-2.94-2.94-6.83-6.55-9.03-10-5.49-8.58-4.42-20.99 1.96-28.83 6.11-7.5 14.91-9.06 24.07-9.17h41V129z"/></symbol><symbol id="move-left" viewBox="0 0 560 560"><path stroke="#000" d="M191 353c0 6.68.39 14.59-1.62 21-3.16 10.08-12.23 15.73-22.38 16.48-13.7 1.02-22.33-10.81-31-19.48l-59-59c-9.94-9.94-21-16.83-21-32 0-14.93 10.23-21.23 20-31l58-58c8.6-8.6 17.12-20.5 30-21.48 11.02-.85 22.03 5.77 25.38 16.48 2.01 6.42 1.62 14.31 1.62 21v33h299c11.36.06 13.98 4.24 14 15v52c-.15 10.84-5.23 12.98-15 13H191v33z"/></symbol><symbol id="move-right" viewBox="0 0 560 560"><path stroke="#000" d="M369 208c0-6.6-.26-15.72 1.63-22 3.23-10.74 14.44-17.32 25.37-16.48 12.88.98 21.4 12.88 30 21.48l58 58c9.77 9.77 20 16.07 20 31 0 15.17-11.06 22.06-21 32l-59 59c-8.67 8.67-17.3 20.5-31 19.48-10.03-.74-19.35-6.44-22.37-16.48-1.89-6.27-1.63-15.41-1.63-22v-32H129 70c-11.36-.06-13.98-4.24-14-15v-52c.15-10.84 5.23-12.98 15-13h298v-32z"/></symbol><symbol id="move-to-bottom" viewBox="0 0 560 560"><path stroke="#000" d="M236 87V37c0-5.59-.8-17.44 1.93-21.96C241.55 9.07 248.84 9.01 255 9h50c4.28.01 10.23-.02 13.78 2.72 4.35 3.37 4.21 9.33 4.22 14.28v317h45c5.49.07 13.3 1.08 18 3.99 13.81 8.57 15.91 26.95 7.45 40.01-4.27 6.6-16.38 17.93-22.45 24l-40 40-33 32.21c-2.86 2.04-5.86 3.3-9 4.79h184c4.81.06 11.15.71 14.73 4.28 4.09 4.08 4.26 10.34 4.27 15.72.01 9.62 2.55 31.26-6.1 36.99-4.02 2.67-12.12 3-16.9 3.01H161 84c-5.92-.01-14.28-.25-18.35-5.21-5.25-6.4-3.75-28.1-3.65-36.79.15-12.72 4.47-16.98 17-17h134l15-1c8.69-.01 34.27.91 41-1-6.55-1.62-9.37-5.38-14-10l-17-17-47-47-24.54-25c-7.49-9.48-7.53-25.57 0-34.96 6.06-7.41 15.38-9.93 24.54-10.04h45V87z"/></symbol><symbol id="move" viewBox="0 0 560 560"><path stroke="#000" d="M159 353c0 6.68.39 14.59-1.62 21-3.16 10.08-12.23 15.73-22.38 16.48-13.7 1.02-22.33-10.81-31-19.48l-59-59c-9.94-9.94-21-16.83-21-32 0-14.93 10.23-21.23 20-31l58-58c8.6-8.6 17.12-20.5 30-21.48 11.02-.85 22.03 5.77 25.38 16.48 2.01 6.42 1.62 14.31 1.62 21v33h242v-32c0-6.6-.26-15.72 1.63-22 3.23-10.74 14.44-17.32 25.37-16.48 12.88.98 21.4 12.88 30 21.48l58 58c9.77 9.77 20 16.07 20 31 0 15.17-11.06 22.06-21 32l-59 59c-8.67 8.67-17.3 20.5-31 19.48-10.03-.74-19.35-6.44-22.37-16.48-1.89-6.27-1.63-15.41-1.63-22v-32H159v33z"/></symbol><symbol id="pause" viewBox="0 0 560 560"><path stroke="#000" d="M134 55.15h68c25.6-.11 45.96 20.25 46 45.85v356c-.04 25.6-20.4 45.96-46 46H100c-22.99-.27-43.73-21.01-44-44V357 154v-36-18c.08-16.79 9.6-31.19 24-39.54 4.35-2.52 9.12-3.91 14-5.31h40zm256 0h68c25.6-.11 45.96 20.25 46 45.85v356c-.04 25.6-20.4 45.96-46 46H356c-22.99-.27-43.73-21.01-44-44V357 154v-36-18c.08-16.79 9.6-31.19 24-39.54 4.35-2.52 9.12-3.91 14-5.31h40z"/></symbol><symbol id="play" viewBox="0 0 560 560"><path stroke="#000" d="M140 36.4l19 11.2 104 61.55 68 40.25 58 34.2 68 40.2c19.19 11.51 39.59 19.37 45.84 43.2 1.5 5.7 1.23 11.15 1.16 17-.17 14.08-7.83 26.93-19 35.24l-17 10.36-48 28.4-218 128.8-49 29c-9.84 5.9-26.47 16.75-37 19.3-5.01 1.22-10.82.96-16 .9-24.61-.29-43.96-21.82-44-46V137 69c.04-23.17 15.42-40.33 38-44.56 20.24-2.6 29.07 1.81 46 11.96z"/></symbol><symbol id="rotate" viewBox="0 0 560 560"><path stroke="#000" d="M377 144.04c-11.6-8.16-24.7-15.6-38-20.62-57.88-21.85-126.87-9.53-172 33.62-18.59 17.77-33.29 37.95-42.8 61.96-2.55 6.44-6.24 23.62-11.31 26.99-3.34 2.23-7.07 2-10.89 2.01H49c-7.44-.11-12.49-2.9-12.96-11-.47-8.19 3.82-21.93 6.24-30 8.23-27.42 21.26-53.02 38.35-76 29.7-39.93 72.09-70.89 119.37-86.65 86.03-28.67 186.65-8.27 252 55.65 4.45-6.22 16.06-17.06 22-23 5.38-5.38 14.17-15.49 21-18.04C506.88 54.53 521.62 60 526.52 72c1.6 3.92 1.47 6.89 1.48 11v132c-.03 16.33-8.67 24.97-25 25H371c-3.64-.01-6.47.12-10-1.11-12.75-4.43-18.61-19.62-14.04-31.89 2.43-6.5 10.09-13.05 15.04-18l32-32-17-12.96zM183 415.96c11.99 8.44 25.27 15.77 39 20.98 58.32 22.11 126.87 8.18 172-34.98 17.96-17.17 32.61-37.78 41.8-60.96 2.55-6.44 6.24-23.62 11.31-26.99 3.34-2.23 7.07-2 10.89-2.01h53c7.44.11 12.49 2.9 12.96 11 .47 8.19-3.82 21.93-6.24 30-8.22 27.4-21.27 53.04-38.35 76-29.7 39.92-72.1 70.89-119.37 86.65-85.98 28.66-186.69 8.23-252-55.65-4.45 6.22-16.06 17.06-22 23-5.38 5.38-14.17 15.49-21 18.04C53.12 505.47 38.38 500 33.48 488c-1.6-3.92-1.47-6.89-1.48-11V345c.03-16.33 8.67-24.97 25-25h134c13.81.17 22.47 9.47 23.48 23 .88 11.59-5.98 17.5-13.48 25l-35 35 17 12.96z"/></symbol><symbol id="speed-up" viewBox="0 0 560 560"><path stroke="#000" d="M200 103l56 56 16 16c1.54 1.54 4.98 5.27 7 5.8 3.26.86 6.93-3.74 9-5.8l23-23 54-54c8.58-8.58 16.47-18.94 30-17.81 12.58 1.04 19.7 10.51 28 18.81 8.58 8.58 16.84 14.03 17 27 .03 2.79.13 6.34-.64 9-2.77 9.65-21.68 26.32-29.36 34l-87 87c-10.06 10.06-26 29.74-40 31.7-12.97 1.81-20.66-6.36-29-14.7l-25-25-82-82c-7.3-7.3-23.67-21.63-26.36-31-.77-2.66-.67-6.21-.64-9 .15-12.66 7.63-17.63 16-26 9.08-9.08 14.05-16.66 27-19.54 16.73-2.16 26.43 11.97 37 22.54zm-1 191l57 57 16 16c1.54 1.54 4.98 5.27 7 5.8 3.26.86 6.93-3.74 9-5.8l23-23 54-54c8.58-8.58 16.47-18.94 30-17.81 12.58 1.04 19.7 10.51 28 18.81 8.58 8.58 16.84 14.03 17 27 .03 2.79.13 6.34-.64 9-2.77 9.65-21.68 26.32-29.36 34l-86 86c-5.75 5.75-24.75 25.54-30 28.87-2.99 1.89-6.53 3.05-10 3.67-13.28 2.37-21.42-5.97-30-14.54l-25-25-82-82c-7.3-7.3-23.67-21.63-26.36-31-.77-2.66-.67-6.21-.64-9 .16-13.25 9.25-19.25 18-28 7.89-7.89 12.7-14.85 24-17.53 17.39-2.42 25.96 10.49 37 21.53z"/></symbol></svg>