<svg xmlns="http://www.w3.org/2000/svg" viewBox="0 0 560 560"><path stroke="#000" d="M208 333.04L259 382l12 11.04 32 30.95c9.98 9.74 18.66 14.16 17.96 30.01-.46 10.54-7.03 16.07-13.96 23-10.79 10.79-21.63 25.78-39 21.07-8.64-2.34-13.91-8.98-20-15.07l-30-30-117-117-29-29c-9.22-9.22-16-13.07-16-27 0-13.57 5.95-16.95 15-26l26-26 124-124 28-28c8.16-8.16 14.31-15.69 27-14.91 11.6.72 17.38 8.29 25 15.91 6.85 6.85 16.51 14.52 19.07 24 4.39 16.21-4.76 23.18-15.07 33.04l-34 32.92L259 178l-51 48.96L194 240h287c15.32.19 22.98 10.44 23 25v21c0 13.65.97 27.34-15 32.89-3.53 1.23-6.36 1.1-10 1.11H194l14 13.04z"/></svg>