<svg xmlns="http://www.w3.org/2000/svg" viewBox="0 0 560 560"><path stroke="#000" d="M167 104.63c11.43 3.4 21.65 16.02 30 24.37l57 57 17 17c1.69 1.68 5.86 6.24 8 6.8 3.41.9 7.8-4.61 10-6.8l26-26 52-52c10.66-10.66 17.71-20.93 34-21 20.07-.09 25.67 9.67 39 23 11.82 11.82 16.2 15.83 16 33-.19 15.35-12.02 24.02-22 34l-61 61-16 16c-1.68 1.69-6.24 5.86-6.8 8-.9 3.41 4.61 7.8 6.8 10l26 26 52 52c10.66 10.66 20.93 17.71 21 34 .09 20.07-9.67 25.67-23 39-11.82 11.82-15.83 16.2-33 16-15.35-.19-24.02-12.02-34-22l-61-61-16-16c-1.69-1.68-5.86-6.24-8-6.8-3.26-.86-6.93 3.74-9 5.8l-23 23-54 54c-13.38 13.38-18.82 23.23-39 23-14.72-.18-21.26-8.26-31-18-12.84-12.84-21.08-17.73-21-37 .07-16.29 10.34-23.34 21-34l54-54 22-22c1.94-1.94 8.19-7.69 8.8-10 .9-3.41-4.61-7.8-6.8-10l-25-25-54-54c-9.71-9.71-19.82-17.12-20-32-.24-20.15 7.5-24.5 21-38 8.23-8.23 13.2-14.73 25-17.37 4.46-.79 12.72-1.06 17 0z"/></svg>