<svg xmlns="http://www.w3.org/2000/svg" viewBox="0 0 560 560"><path stroke="#000" d="M159 353c0 6.68.39 14.59-1.62 21-3.16 10.08-12.23 15.73-22.38 16.48-13.7 1.02-22.33-10.81-31-19.48l-59-59c-9.94-9.94-21-16.83-21-32 0-14.93 10.23-21.23 20-31l58-58c8.6-8.6 17.12-20.5 30-21.48 11.02-.85 22.03 5.77 25.38 16.48 2.01 6.42 1.62 14.31 1.62 21v33h242v-32c0-6.6-.26-15.72 1.63-22 3.23-10.74 14.44-17.32 25.37-16.48 12.88.98 21.4 12.88 30 21.48l58 58c9.77 9.77 20 16.07 20 31 0 15.17-11.06 22.06-21 32l-59 59c-8.67 8.67-17.3 20.5-31 19.48-10.03-.74-19.35-6.44-22.37-16.48-1.89-6.27-1.63-15.41-1.63-22v-32H159v33z"/></svg>