<svg xmlns="http://www.w3.org/2000/svg" viewBox="0 0 560 560"><path stroke="#000" d="M236 87V37c0-5.59-.8-17.44 1.93-21.96C241.55 9.07 248.84 9.01 255 9h50c4.28.01 10.23-.02 13.78 2.72 4.35 3.37 4.21 9.33 4.22 14.28v317h45c5.49.07 13.3 1.08 18 3.99 13.81 8.57 15.91 26.95 7.45 40.01-4.27 6.6-16.38 17.93-22.45 24l-40 40-33 32.21c-2.86 2.04-5.86 3.3-9 4.79h184c4.81.06 11.15.71 14.73 4.28 4.09 4.08 4.26 10.34 4.27 15.72.01 9.62 2.55 31.26-6.1 36.99-4.02 2.67-12.12 3-16.9 3.01H161 84c-5.92-.01-14.28-.25-18.35-5.21-5.25-6.4-3.75-28.1-3.65-36.79.15-12.72 4.47-16.98 17-17h134l15-1c8.69-.01 34.27.91 41-1-6.55-1.62-9.37-5.38-14-10l-17-17-47-47-24.54-25c-7.49-9.48-7.53-25.57 0-34.96 6.06-7.41 15.38-9.93 24.54-10.04h45V87z"/></svg>