<svg xmlns="http://www.w3.org/2000/svg" viewBox="0 0 560 560"><path stroke="#000" d="M377 144.04c-11.6-8.16-24.7-15.6-38-20.62-57.88-21.85-126.87-9.53-172 33.62-18.59 17.77-33.29 37.95-42.8 61.96-2.55 6.44-6.24 23.62-11.31 26.99-3.34 2.23-7.07 2-10.89 2.01H49c-7.44-.11-12.49-2.9-12.96-11-.47-8.19 3.82-21.93 6.24-30 8.23-27.42 21.26-53.02 38.35-76 29.7-39.93 72.09-70.89 119.37-86.65 86.03-28.67 186.65-8.27 252 55.65 4.45-6.22 16.06-17.06 22-23 5.38-5.38 14.17-15.49 21-18.04C506.88 54.53 521.62 60 526.52 72c1.6 3.92 1.47 6.89 1.48 11v132c-.03 16.33-8.67 24.97-25 25H371c-3.64-.01-6.47.12-10-1.11-12.75-4.43-18.61-19.62-14.04-31.89 2.43-6.5 10.09-13.05 15.04-18l32-32-17-12.96zM183 415.96c11.99 8.44 25.27 15.77 39 20.98 58.32 22.11 126.87 8.18 172-34.98 17.96-17.17 32.61-37.78 41.8-60.96 2.55-6.44 6.24-23.62 11.31-26.99 3.34-2.23 7.07-2 10.89-2.01h53c7.44.11 12.49 2.9 12.96 11 .47 8.19-3.82 21.93-6.24 30-8.22 27.4-21.27 53.04-38.35 76-29.7 39.92-72.1 70.89-119.37 86.65-85.98 28.66-186.69 8.23-252-55.65-4.45 6.22-16.06 17.06-22 23-5.38 5.38-14.17 15.49-21 18.04C53.12 505.47 38.38 500 33.48 488c-1.6-3.92-1.47-6.89-1.48-11V345c.03-16.33 8.67-24.97 25-25h134c13.81.17 22.47 9.47 23.48 23 .88 11.59-5.98 17.5-13.48 25l-35 35 17 12.96z"/></svg>