<svg xmlns="http://www.w3.org/2000/svg" viewBox="0 0 560 560"><path stroke="#000" d="M200 103l56 56 16 16c1.54 1.54 4.98 5.27 7 5.8 3.26.86 6.93-3.74 9-5.8l23-23 54-54c8.58-8.58 16.47-18.94 30-17.81 12.58 1.04 19.7 10.51 28 18.81 8.58 8.58 16.84 14.03 17 27 .03 2.79.13 6.34-.64 9-2.77 9.65-21.68 26.32-29.36 34l-87 87c-10.06 10.06-26 29.74-40 31.7-12.97 1.81-20.66-6.36-29-14.7l-25-25-82-82c-7.3-7.3-23.67-21.63-26.36-31-.77-2.66-.67-6.21-.64-9 .15-12.66 7.63-17.63 16-26 9.08-9.08 14.05-16.66 27-19.54 16.73-2.16 26.43 11.97 37 22.54zm-1 191l57 57 16 16c1.54 1.54 4.98 5.27 7 5.8 3.26.86 6.93-3.74 9-5.8l23-23 54-54c8.58-8.58 16.47-18.94 30-17.81 12.58 1.04 19.7 10.51 28 18.81 8.58 8.58 16.84 14.03 17 27 .03 2.79.13 6.34-.64 9-2.77 9.65-21.68 26.32-29.36 34l-86 86c-5.75 5.75-24.75 25.54-30 28.87-2.99 1.89-6.53 3.05-10 3.67-13.28 2.37-21.42-5.97-30-14.54l-25-25-82-82c-7.3-7.3-23.67-21.63-26.36-31-.77-2.66-.67-6.21-.64-9 .16-13.25 9.25-19.25 18-28 7.89-7.89 12.7-14.85 24-17.53 17.39-2.42 25.96 10.49 37 21.53z"/></svg>